<svg width="12" height="12" viewBox="0 0 12 12" fill="none" xmlns="http://www.w3.org/2000/svg">
<path d="M8.5001 4.58497C8.40641 4.49185 8.27969 4.43958 8.1476 4.43958C8.0155 4.43958 7.88878 4.49185 7.7951 4.58497L6.0001 6.35497L4.2301 4.58497C4.13642 4.49185 4.00969 4.43958 3.8776 4.43958C3.7455 4.43958 3.61878 4.49185 3.5251 4.58497C3.47823 4.63145 3.44103 4.68675 3.41565 4.74768C3.39027 4.80861 3.3772 4.87397 3.3772 4.93997C3.3772 5.00598 3.39027 5.07133 3.41565 5.13226C3.44103 5.19319 3.47823 5.24849 3.5251 5.29497L5.6451 7.41497C5.69158 7.46184 5.74688 7.49903 5.80781 7.52442C5.86874 7.5498 5.93409 7.56287 6.0001 7.56287C6.0661 7.56287 6.13146 7.5498 6.19238 7.52442C6.25331 7.49903 6.30861 7.46184 6.3551 7.41497L8.5001 5.29497C8.54696 5.24849 8.58416 5.19319 8.60954 5.13226C8.63493 5.07133 8.648 5.00598 8.648 4.93997C8.648 4.87397 8.63493 4.80861 8.60954 4.74768C8.58416 4.68675 8.54696 4.63145 8.5001 4.58497Z" fill="#A7B1BC"/>
</svg>
